<svg width="18" height="18" viewBox="0 0 18 18" fill="none" xmlns="http://www.w3.org/2000/svg">
<path d="M9.705 9L13.35 5.355C13.4319 5.25935 13.4747 5.13631 13.4699 5.01047C13.465 4.88464 13.4128 4.76527 13.3238 4.67622C13.2347 4.58717 13.1154 4.535 12.9895 4.53014C12.8637 4.52528 12.7407 4.56809 12.645 4.65L9 8.295L5.355 4.645C5.25935 4.56309 5.13631 4.52028 5.01047 4.52514C4.88464 4.53001 4.76527 4.58217 4.67622 4.67122C4.58717 4.76027 4.535 4.87964 4.53014 5.00547C4.52528 5.13131 4.56809 5.25435 4.65 5.35L8.295 9L4.645 12.645C4.59266 12.6898 4.55015 12.745 4.52014 12.807C4.49013 12.869 4.47326 12.9366 4.4706 13.0055C4.46794 13.0743 4.47954 13.143 4.50468 13.2072C4.52982 13.2713 4.56795 13.3296 4.61668 13.3783C4.6654 13.4271 4.72368 13.4652 4.78784 13.4903C4.852 13.5155 4.92067 13.5271 4.98953 13.5244C5.05839 13.5217 5.12595 13.5049 5.18799 13.4749C5.25002 13.4449 5.30518 13.4023 5.35 13.35L9 9.705L12.645 13.35C12.7407 13.4319 12.8637 13.4747 12.9895 13.4699C13.1154 13.465 13.2347 13.4128 13.3238 13.3238C13.4128 13.2347 13.465 13.1154 13.4699 12.9895C13.4747 12.8637 13.4319 12.7407 13.35 12.645L9.705 9Z" fill="black"/>
</svg>
